<svg width="29" height="30" viewBox="0 0 29 30" fill="none" xmlns="http://www.w3.org/2000/svg">
<path d="M26.267 15.2667C26.267 14.28 26.1878 13.56 26.0164 12.8133H14.8711V17.2666H21.4131C21.2813 18.3733 20.569 20.04 18.9862 21.1599L18.9641 21.309L22.488 24.0687L22.7321 24.0933C24.9743 22 26.267 18.92 26.267 15.2667Z" fill="#4285F4"/>
<path d="M14.8701 27C18.0752 27 20.7658 25.9333 22.7312 24.0933L18.9853 21.1599C17.9829 21.8666 16.6375 22.3599 14.8701 22.3599C11.731 22.3599 9.06673 20.2667 8.11699 17.3733L7.97777 17.3853L4.31354 20.252L4.26562 20.3866C6.21767 24.3066 10.2273 27 14.8701 27Z" fill="#34A853"/>
<path d="M8.11754 17.3733C7.86694 16.6267 7.72191 15.8266 7.72191 15C7.72191 14.1733 7.86694 13.3733 8.10435 12.6266L8.09772 12.4676L4.38757 9.55489L4.26618 9.61326C3.46164 11.2399 3 13.0667 3 15C3 16.9333 3.46164 18.7599 4.26618 20.3866L8.11754 17.3733Z" fill="#FBBC05"/>
<path d="M14.8701 7.63997C17.0992 7.63997 18.6028 8.6133 19.4601 9.42669L22.8103 6.12C20.7528 4.18667 18.0752 3 14.8701 3C10.2273 3 6.21767 5.69331 4.26562 9.61328L8.1038 12.6267C9.06673 9.73333 11.731 7.63997 14.8701 7.63997Z" fill="#EB4335"/>
</svg>
