<svg width="30" height="30" viewBox="0 0 30 30" fill="none" xmlns="http://www.w3.org/2000/svg">
<g clip-path="url(#clip0_313_298)">
<path d="M26.25 0H3.75C1.68187 0 0 1.68187 0 3.75V26.25C0 28.3181 1.68187 30 3.75 30H26.25C28.3181 30 30 28.3181 30 26.25V3.75C30 1.68187 28.3181 0 26.25 0Z" fill="#E8E8E8"/>
<path d="M18.2939 6.14672C18.7815 5.58032 19.1532 4.92243 19.3878 4.21081C19.6224 3.49919 19.7152 2.74788 19.6609 2C18.1641 2.12178 16.7747 2.83137 15.792 3.97587C15.3214 4.5244 14.9648 5.16253 14.7433 5.85248C14.5218 6.54243 14.4399 7.27017 14.5024 7.9926C15.2325 7.99873 15.9542 7.83544 16.6117 7.51535C17.2692 7.19526 17.8448 6.72697 18.2939 6.14672ZM21.5438 15.8181C21.5524 14.822 21.8127 13.8446 22.3001 12.978C22.7875 12.1115 23.4859 11.3844 24.3294 10.8654C23.7971 10.0923 23.0933 9.45479 22.274 9.00351C21.4547 8.55223 20.5424 8.29958 19.6093 8.26558C17.5975 8.0576 15.7404 9.44851 14.67 9.44851C13.5996 9.44851 12.0908 8.29158 10.4143 8.31758C9.31824 8.35397 8.25028 8.67607 7.31456 9.25246C6.37883 9.82885 5.60729 10.6399 5.07518 11.6064C2.80543 15.5841 4.49485 21.4987 6.7646 24.7095C7.7963 26.2824 9.08594 28.0633 10.7883 27.9983C12.4906 27.9333 13.0451 26.9323 15.0182 26.9323C16.9914 26.9323 17.5975 27.9983 19.274 27.9593C20.9506 27.9203 22.137 26.3474 23.2203 24.7745C23.9877 23.6325 24.5871 22.3847 25 21.0697C23.9779 20.6304 23.1059 19.8989 22.4917 18.9656C21.8775 18.0323 21.5479 16.9381 21.5438 15.8181Z" fill="black"/>
</g>
<defs>
<clipPath id="clip0_313_298">
<rect width="30" height="30" fill="white"/>
</clipPath>
</defs>
</svg>
