<svg width="30" height="30" viewBox="0 0 30 30" fill="none" xmlns="http://www.w3.org/2000/svg">
<path d="M26.25 0H3.75C1.68187 0 0 1.68187 0 3.75V26.25C0 28.3181 1.68187 30 3.75 30H26.25C28.3181 30 30 28.3181 30 26.25V3.75C30 1.68187 28.3181 0 26.25 0Z" fill="#1976D2"/>
<path fill-rule="evenodd" clip-rule="evenodd" d="M22 15.2308H17V11.5385C17 10.5194 17.896 10.6154 19 10.6154H21V6H17C15.4087 6 13.8826 6.58351 12.7574 7.62218C11.6321 8.66084 11 10.0696 11 11.5385V15.2308H7V19.8462H11V30H17V19.8462H20L22 15.2308Z" fill="#FAFAFA"/>
</svg>
